<svg width="159" height="210" viewBox="0 0 159 210" fill="none" xmlns="http://www.w3.org/2000/svg">
<path d="M100.934 141.594C101.658 141.582 102.382 141.581 103.106 141.594L103.119 141.594C105.176 141.615 107.224 141.719 109.233 141.981L109.247 141.983L109.261 141.984C112.971 142.398 116.993 143.657 119.764 145.901C119.681 145.944 119.586 145.989 119.478 146.034C118.881 146.286 118.157 146.457 117.699 146.529L100.934 141.594ZM100.934 141.594C101.619 142.086 102.319 142.551 103.036 142.984C104.874 144.087 106.798 144.997 108.781 145.663L108.781 145.663C111.645 146.625 114.778 146.988 117.698 146.529L100.934 141.594ZM44.9696 152.557C49.5196 149.623 54.9983 147.126 61.1036 144.973C63.721 140.495 66.0531 135.862 68.2013 131.144C68.8186 129.807 69.4483 128.442 70.0904 127.051L44.9696 152.557ZM44.9696 152.557C42.5288 154.134 40.3728 155.846 38.5772 157.725L44.9696 152.557ZM68.9137 126.021C70.2571 122.925 71.6383 119.742 72.9144 116.396C73.3993 115.095 73.864 113.763 74.3054 112.408C73.5865 110.57 72.9228 108.716 72.3159 106.848L72.3136 106.841C71.6088 104.634 70.941 102.362 70.524 99.9486L70.5236 99.9457C70.1129 97.5407 69.9728 95.0763 70.1718 92.6078L70.1718 92.6072C70.2938 91.1012 70.5695 89.2038 71.2297 87.4575C71.8855 85.7227 72.994 83.9492 74.9006 82.9933L74.9008 82.9932C76.7932 82.0447 78.5697 82.5848 79.8472 83.5615C81.0694 84.496 81.9549 85.8898 82.4332 87.1062L82.4333 87.1064C84.9246 93.4452 84.6297 100.903 83.9018 107.202C83.9018 107.202 83.9018 107.202 83.9018 107.202L82.4117 107.029L68.9137 126.021ZM68.9137 126.021L68.7329 126.413C68.0892 127.807 67.4581 129.175 66.8395 130.515L66.8361 130.522C64.7796 135.039 62.5587 139.465 60.0833 143.743C54.1142 145.88 48.7032 148.364 44.1567 151.296L44.1556 151.297C41.6396 152.922 39.3867 154.707 37.4929 156.688L68.9137 126.021ZM54.8909 151.963C55.7245 151.581 56.5801 151.207 57.4565 150.841L38.6078 162.127C39.1575 161.207 39.8382 160.364 40.5753 159.588C42.1546 157.929 44.1514 156.321 46.4486 154.832C49.356 152.946 52.7284 151.215 56.4531 149.636C55.9229 150.448 55.4016 151.224 54.8909 151.963ZM54.8909 151.963C54.282 152.845 53.6884 153.674 53.1132 154.45L53.1096 154.455C53.0117 154.589 52.9136 154.722 52.8154 154.856C51.441 156.729 50.0347 158.645 48.4382 160.325C46.7346 162.118 44.8954 163.552 42.7967 164.319C41.9517 164.628 40.9832 164.889 40.0261 164.833L40.0258 164.833C39.8362 164.821 39.6687 164.793 39.5321 164.753C39.3938 164.713 39.3124 164.669 39.2722 164.641C39.2645 164.635 39.2589 164.631 39.2549 164.627C39.2526 164.613 39.2502 164.588 39.2518 164.549L39.2519 164.545C39.2633 164.243 39.4462 163.647 39.8947 162.898L39.8954 162.897C40.3739 162.096 40.9797 161.34 41.6625 160.622C43.1441 159.065 45.0441 157.53 47.2646 156.09L47.265 156.09C49.5215 154.626 52.0808 153.25 54.8909 151.963ZM120.142 145.649C120.142 145.649 120.141 145.651 120.137 145.655C120.14 145.651 120.142 145.649 120.142 145.649ZM79.8666 124.273C82.3487 128.747 85.2369 133.045 88.621 136.994C87.1299 137.185 85.655 137.397 84.1997 137.63L84.1974 137.63C80.0735 138.299 76.0982 139.122 72.2903 140.072C72.7717 139.225 73.269 138.317 73.6183 137.68C73.8052 137.339 73.9497 137.075 74.0266 136.939C76.3278 132.886 78.2991 128.666 79.8666 124.273ZM76.7614 102.865C76.4028 101.572 76.0999 100.299 75.8956 99.0518L75.8956 99.0518L75.8938 99.0411C75.5561 97.0701 75.5049 95.0692 75.7126 93.1459L75.7127 93.145C75.8129 92.2118 76.0024 91.3083 76.2725 90.4701L76.2727 90.4695C76.2941 90.403 76.316 90.3338 76.3387 90.2623C76.4518 89.9055 76.5824 89.4936 76.7462 89.1025C76.915 89.6328 77.0193 90.2139 77.0989 90.6571C77.1139 90.741 77.1281 90.8199 77.1416 90.8926L77.1417 90.8929C77.8455 94.6666 77.4985 98.8415 76.7614 102.865ZM93.2624 134.382C88.7838 129.08 85.1302 123.065 82.1255 116.779L37.4929 156.689C35.7653 158.496 33.6956 161.137 33.5109 164.259L33.5108 164.259C33.4002 166.138 34.1439 168.051 35.7822 169.242C37.9454 170.853 40.6558 170.651 42.6258 170.238L42.6259 170.238C46.0326 169.524 48.9737 167.718 51.5327 165.589C54.0239 163.517 56.2374 161.064 58.2003 158.889L58.3441 158.729C61.0835 155.695 64.1812 151.874 67.4186 147.281C72.8826 145.611 78.8143 144.197 85.102 143.15C87.8456 142.695 90.6545 142.317 93.5146 142.04C95.6367 143.979 97.9318 145.759 100.432 147.27C102.534 148.563 104.779 149.66 107.139 150.481L107.152 150.486L107.166 150.491C109.493 151.251 111.858 151.88 114.317 152.279L114.331 152.281L114.345 152.283C115.617 152.465 116.927 152.549 118.273 152.499L118.273 152.499C119.792 152.441 121.722 152.123 123.361 151.289C125.032 150.438 126.565 148.945 126.749 146.568C126.853 145.234 126.562 144.033 125.973 142.984C124.582 140.507 121.653 139.079 119.008 138.201C116.28 137.294 113.408 136.834 111.681 136.56C108.841 136.108 105.965 135.977 103.157 135.979C100.936 135.964 98.7574 136.074 96.6445 136.194L96.6368 136.194L96.6292 136.195C96.0802 136.232 95.5358 136.276 94.9993 136.322C94.4062 135.69 93.8275 135.043 93.2624 134.382ZM39.2582 164.641C39.2582 164.641 39.2577 164.64 39.257 164.638C39.2579 164.64 39.2583 164.641 39.2582 164.641ZM77.1581 88.3535C77.1635 88.3479 77.1662 88.3456 77.1662 88.3459C77.1663 88.3461 77.1636 88.3488 77.1581 88.3535Z" fill="black" stroke="black" stroke-width="3"/>
<path d="M11 199V11H100.5L148.5 69V199H11Z" stroke="black" stroke-width="21"/>
<path d="M101.5 64V42.6476L120.005 64H101.5Z" fill="black" stroke="black" stroke-width="21"/>
</svg>
