<svg width="310" height="190" viewBox="0 0 310 190" fill="none" xmlns="http://www.w3.org/2000/svg">
<circle cx="154.531" cy="76.0578" r="31.2638" stroke="black" stroke-width="11"/>
<path d="M86.7347 183.794C88.9872 157.485 107.258 134.992 133.01 127.635L135.839 126.826C148.054 123.336 161.002 123.336 173.216 126.826L176.045 127.635C201.797 134.992 220.068 157.485 222.321 183.794H86.7347Z" stroke="black" stroke-width="11"/>
<circle cx="253.108" cy="28.4785" r="28.1846" fill="black"/>
<path d="M196.738 115.294C196.738 91.4614 212.537 70.5163 235.453 63.969L237.622 63.3493C247.743 60.4575 258.472 60.4575 268.593 63.3493L270.762 63.969C293.678 70.5163 309.477 91.4614 309.477 115.294V115.294H196.738V115.294Z" fill="black"/>
<circle cx="56.3701" cy="28.4785" r="28.1846" fill="black"/>
<path d="M0 115.294C0 91.4614 15.7989 70.5163 38.7145 63.969L40.8833 63.3493C51.0047 60.4575 61.7336 60.4575 71.8549 63.3493L74.0238 63.969C96.9394 70.5163 112.738 91.4614 112.738 115.294V115.294H0V115.294Z" fill="black"/>
</svg>
