<svg width="125" height="125" viewBox="0 0 125 125" fill="none" xmlns="http://www.w3.org/2000/svg">
<path fill-rule="evenodd" clip-rule="evenodd" d="M31.71 73.8416C27.94 72.7453 24.5544 70.6107 21.94 67.6816C28.48 65.2216 31.5 58.6116 31.94 47.0516C32.25 38.4616 30.47 31.9816 33.4 23.5016C39.18 6.71163 60.64 0.991627 72.6 10.7916C82 9.79163 91.42 14.6316 93.45 29.0916C94.97 39.8716 91.75 49.3116 95.15 59.2516C95.7596 61.2946 96.785 63.1895 98.1616 64.8174C99.5383 66.4454 101.237 67.7712 103.15 68.7116C100.6 71.1516 96.9 72.7716 92.47 73.8516C87.0143 74.905 81.4836 75.5236 75.93 75.7016C76.39 82.9116 77.25 84.4016 81.43 86.7816C73.9 98.3416 50.2 98.1916 43.43 86.7816C46.43 83.1216 48.16 80.3616 48.09 75.8816C40.96 75.5516 34.91 74.8816 31.68 73.8816L31.71 73.8416ZM87.56 85.2516C93.28 87.4516 114.45 93.3316 118.12 100.252C122.27 108.032 121.66 116.682 123.88 124.952H1C3.22 116.682 2.61 108.032 6.76 100.252C10.36 93.4916 27.89 88.9116 34.91 86.2516C36.28 110.622 89.14 110.652 87.56 85.3316V85.2516Z" fill="#696969"/>
</svg>
