<svg width="125" height="125" viewBox="0 0 125 125" fill="none" xmlns="http://www.w3.org/2000/svg">
<g clip-path="url(#clip0_399_17)">
<path fill-rule="evenodd" clip-rule="evenodd" d="M32 29.5859C33.78 17.1462 62.43 0.182995 75.78 17.143C91.87 17.993 98.32 43.583 85.49 54.313L85.41 54.943C85.8956 54.7964 86.3948 54.6992 86.9 54.653C87.8065 54.5641 88.7194 54.7376 89.53 55.153C89.9656 55.3836 90.3509 55.6987 90.6634 56.0798C90.9759 56.461 91.2093 56.9006 91.35 57.373C91.6927 58.624 91.6649 59.9475 91.27 61.183L89.27 66.883C89.0685 67.6895 88.6254 68.4152 88 68.963C87.2138 69.5287 86.238 69.7655 85.28 69.623C85.0924 69.6129 84.9055 69.5929 84.72 69.563C84.59 75.893 81.5 78.813 77.45 82.623C80.62 93.373 88.3 95.043 95.77 96.623L96.41 96.763C102.41 97.963 110.41 99.053 113.31 100.663C115.369 101.771 117.174 103.297 118.61 105.143C122.25 109.953 122.61 119.143 123.89 125.053H1C2.32 119.163 2.64 109.943 6.28 105.143C7.70776 103.29 9.51468 101.762 11.58 100.663C18.86 96.663 37.47 96.603 44.89 91.993C46.9916 89.8494 48.4919 87.1903 49.24 84.283L49.07 84.123L47.54 82.793C43.54 79.373 40.24 76.503 39.61 69.533H39.26C38.4396 69.5314 37.6335 69.3179 36.92 68.913C35.7444 68.1829 34.8414 67.0867 34.35 65.793C33.7519 64.2946 33.4137 62.7051 33.35 61.093C33.35 60.613 33.35 59.643 33.35 58.713C33.3569 58.0445 33.4003 57.3768 33.48 56.713C33.4933 56.5819 33.527 56.4537 33.58 56.333C34.41 54.023 35.69 53.263 37.37 53.333L36.22 52.583C35.62 45.073 35.28 34.588 32 29.5859ZM47.55 93.853L55.29 114.183L59.75 101.493L57.56 99.103C56.58 97.663 56.3633 96.4063 56.91 95.333C58.09 92.993 60.54 93.423 62.83 93.423C65.12 93.423 68.18 92.973 68.93 95.963C69.0272 96.5111 69.009 97.0736 68.8764 97.6142C68.7438 98.1549 68.4998 98.662 68.16 99.103L66 101.493L70.45 114.183L78.33 91.313C76.9408 89.4758 75.8507 87.4305 75.1 85.253C73.5719 86.6023 71.8048 87.6537 69.89 88.353C66.1527 90.172 61.865 90.5079 57.89 89.293C56.0039 88.9006 54.1982 88.1905 52.55 87.193C52.27 87.023 52 86.853 51.74 86.663C50.8824 89.3291 49.4639 91.7807 47.58 93.853H47.55ZM74.55 81.113C74.6085 81.0481 74.672 80.9879 74.74 80.933L75.29 80.413C79.21 76.733 82.1 74.013 81.55 67.413C81.5126 67.0606 81.6012 66.7063 81.8 66.413C81.9126 66.2359 82.0605 66.0838 82.2344 65.9662C82.4083 65.8487 82.6045 65.7682 82.8109 65.7297C83.0172 65.6913 83.2293 65.6957 83.4339 65.7427C83.6384 65.7897 83.8311 65.8783 84 66.003C84.237 66.1652 84.4921 66.2995 84.76 66.403H84.82C85.0272 66.4875 85.2467 66.5381 85.47 66.553C85.6926 66.578 85.9174 66.578 86.14 66.553C86.2562 66.326 86.35 66.0882 86.42 65.843L88.37 60.323C88.5932 59.6801 88.6347 58.988 88.49 58.323C88.4672 58.2261 88.4242 58.135 88.3639 58.0558C88.3036 57.9765 88.2273 57.9108 88.14 57.863C87.8251 57.7279 87.4789 57.6829 87.14 57.733C86.1374 57.8536 85.1884 58.2519 84.4 58.883C84.1535 59.0598 83.8601 59.1593 83.5569 59.1689C83.2538 59.1786 82.9546 59.0979 82.6974 58.9371C82.4402 58.7764 82.2366 58.5428 82.1124 58.2661C81.9882 57.9894 81.9491 57.682 82 57.383C83.44 48.973 82.78 43.483 81 39.753C79.5282 36.8264 77.1452 34.4575 74.21 33.003C68.21 37.623 63.94 38.153 59.71 38.673C56.21 39.103 52.71 39.533 48.08 42.733C46.0534 44.0495 44.5066 45.9857 43.67 48.253C42.9118 50.6903 42.846 53.2904 43.48 55.763C43.5905 56.0872 43.5905 56.4388 43.48 56.763C43.4123 56.9569 43.306 57.135 43.1676 57.2867C43.0291 57.4383 42.8614 57.5604 42.6745 57.6454C42.4876 57.7305 42.2854 57.7768 42.0801 57.7815C41.8748 57.7862 41.6706 57.7493 41.48 57.673L40.08 57.173C38.27 56.533 36.99 56.243 36.5 57.383C36.5 57.743 36.43 58.313 36.42 58.903C36.42 59.743 36.42 60.613 36.42 61.053C36.4824 62.3024 36.7528 63.5326 37.22 64.693C37.4567 65.3696 37.9012 65.9541 38.49 66.363C38.7519 66.5117 39.0488 66.5876 39.35 66.583C39.7744 66.5797 40.1958 66.5123 40.6 66.383C40.7477 66.3306 40.9033 66.3035 41.06 66.303C41.2608 66.2963 41.4609 66.3298 41.6486 66.4014C41.8363 66.4731 42.0078 66.5815 42.1531 66.7202C42.2984 66.859 42.4145 67.0253 42.4947 67.2095C42.5748 67.3938 42.6174 67.5921 42.62 67.793C42.79 74.723 45.87 77.363 49.62 80.583C50.2 81.083 50.8 81.583 51.18 81.943C53.3473 83.9573 55.927 85.4757 58.74 86.393C60.7151 86.7929 62.7435 86.8571 64.74 86.583C66.0448 86.3842 67.3251 86.049 68.56 85.583C70.471 84.6432 72.2197 83.4043 73.74 81.913L74.58 81.103L74.55 81.113ZM72 53.683C72.5028 53.681 72.9948 53.8283 73.4139 54.1062C73.8329 54.3841 74.16 54.7801 74.3538 55.244C74.5476 55.708 74.5993 56.219 74.5024 56.7124C74.4055 57.2057 74.1644 57.6593 73.8096 58.0155C73.4548 58.3717 73.0022 58.6146 72.5092 58.7134C72.0162 58.8123 71.505 58.7625 71.0403 58.5706C70.5756 58.3786 70.1783 58.0531 69.8988 57.6352C69.6192 57.2173 69.47 56.7258 69.47 56.223C69.47 55.5511 69.7362 54.9065 70.2104 54.4305C70.6846 53.9544 71.3281 53.6856 72 53.683ZM59.82 68.833C59.5972 68.6391 59.4576 68.367 59.43 68.073C59.4068 67.7793 59.5002 67.4883 59.69 67.263C59.7826 67.1479 59.8978 67.053 60.0285 66.9842C60.1593 66.9154 60.3027 66.8741 60.45 66.863C60.7469 66.8382 61.0416 66.9316 61.27 67.123C61.4333 67.2585 61.6196 67.3635 61.82 67.433C62.006 67.5166 62.2062 67.5641 62.41 67.573C62.6223 67.5629 62.8316 67.519 63.03 67.443C63.2307 67.3674 63.4194 67.263 63.59 67.133C63.816 66.9615 64.0973 66.8796 64.38 66.903C64.6663 66.93 64.9313 67.066 65.12 67.283V67.333C65.2992 67.5592 65.3851 67.8455 65.36 68.133C65.3262 68.4297 65.1794 68.7019 64.95 68.893C64.5708 69.1958 64.1454 69.4355 63.69 69.603C63.249 69.7695 62.7814 69.8542 62.31 69.853C61.8619 69.8324 61.4198 69.7413 61 69.583C60.5635 69.4187 60.1578 69.1821 59.8 68.883L59.82 68.833ZM52.82 53.683C53.3228 53.681 53.8148 53.8283 54.2339 54.1062C54.6529 54.3841 54.98 54.7801 55.1738 55.244C55.3676 55.708 55.4193 56.219 55.3224 56.7124C55.2255 57.2057 54.9844 57.6593 54.6296 58.0155C54.2748 58.3717 53.8222 58.6146 53.3292 58.7134C52.8362 58.8123 52.325 58.7625 51.8603 58.5706C51.3956 58.3786 50.9983 58.0531 50.7188 57.6352C50.4392 57.2173 50.29 56.7258 50.29 56.223C50.29 55.5511 50.5562 54.9065 51.0304 54.4305C51.5046 53.9544 52.1481 53.6856 52.82 53.683ZM54.21 72.583H69.7C71.13 72.583 71.5 73.293 71.02 74.343C66.88 83.683 53.24 79.083 53.02 74.213C52.9703 73.8403 53.0664 73.4629 53.288 73.1593C53.5097 72.8557 53.8399 72.6492 54.21 72.583ZM77.79 52.443C77.965 52.6804 78.0386 52.9775 77.9946 53.2692C77.9505 53.5608 77.7924 53.823 77.555 53.998C77.4375 54.0847 77.304 54.1473 77.1623 54.1824C77.0205 54.2175 76.8732 54.2244 76.7288 54.2025C76.4372 54.1585 76.175 54.0004 76 53.763C75.3277 52.7822 74.3279 52.0731 73.18 51.763C72.0842 51.5538 70.9518 51.6542 69.91 52.053C69.7736 52.1014 69.6288 52.1218 69.4843 52.1132C69.3398 52.1045 69.1985 52.0668 69.0688 52.0025C68.9391 51.9381 68.8237 51.8483 68.7295 51.7385C68.6352 51.6286 68.5639 51.5009 68.52 51.363C68.4729 51.2258 68.4534 51.0806 68.4626 50.9358C68.4718 50.7911 68.5096 50.6495 68.5737 50.5194C68.6378 50.3893 68.7271 50.2731 68.8363 50.1776C68.9455 50.0822 69.0725 50.0092 69.21 49.963C70.6439 49.4134 72.2042 49.2816 73.71 49.583C75.3689 50.0221 76.8161 51.0401 77.79 52.453V52.443ZM51.17 49.583C52.6606 49.2763 54.2078 49.4012 55.63 49.943C55.7672 49.9883 55.8942 50.0602 56.0036 50.1546C56.1131 50.2489 56.2029 50.3639 56.2679 50.493C56.3329 50.6221 56.3718 50.7627 56.3825 50.9068C56.3931 51.051 56.3753 51.1958 56.33 51.333C56.2847 51.4702 56.2128 51.5972 56.1184 51.7066C56.0241 51.8161 55.909 51.9059 55.78 51.9709C55.6509 52.0359 55.5103 52.0748 55.3662 52.0855C55.222 52.0961 55.0772 52.0783 54.94 52.033C53.8998 51.6277 52.7665 51.5237 51.67 51.733C50.5221 52.0431 49.5223 52.7522 48.85 53.733C48.7633 53.8486 48.6547 53.9459 48.5304 54.0195C48.4061 54.0931 48.2686 54.1415 48.1256 54.1619C47.9826 54.1824 47.8369 54.1744 47.697 54.1386C47.5571 54.1027 47.4256 54.0397 47.31 53.953C47.1944 53.8663 47.0971 53.7577 47.0235 53.6334C46.9499 53.5091 46.9015 53.3716 46.8811 53.2286C46.8606 53.0856 46.8686 52.9399 46.9044 52.8C46.9403 52.6601 47.0033 52.5286 47.09 52.413C48.0651 51.0094 49.5137 50.0045 51.17 49.583ZM56.1 75.903L55.4 74.083H68.85L68.24 75.903H56.1Z" fill="#696969"/>
</g>
<defs>
<clipPath id="clip0_399_17">
<rect width="125" height="125" fill="white"/>
</clipPath>
</defs>
</svg>
