<svg width="231" height="185" viewBox="0 0 231 185" fill="none" xmlns="http://www.w3.org/2000/svg">
<rect x="11" y="154.294" width="220" height="30" rx="15" fill="black"/>
<path d="M117 148.794H52.8799C59.646 140.597 59.646 127.99 52.8799 119.794H117C125.008 119.794 131.5 126.286 131.5 134.294C131.5 142.302 125.008 148.794 117 148.794Z" stroke="black" stroke-width="11"/>
<rect x="75" y="131.294" width="40" height="5" rx="2.5" fill="black"/>
<path d="M95 108.794H30.8799C37.646 100.597 37.646 87.9905 30.8799 79.7939H95C103.008 79.7939 109.5 86.2858 109.5 94.2939C109.5 102.302 103.008 108.794 95 108.794Z" fill="black" stroke="black" stroke-width="11"/>
<rect x="48" y="91.2939" width="50" height="9" rx="4.5" fill="white"/>
<path d="M122 68.7939H57.8799C64.646 60.5974 64.646 47.9905 57.8799 39.7939H122C130.008 39.7939 136.5 46.2858 136.5 54.2939C136.5 62.3021 130.008 68.7939 122 68.7939Z" stroke="black" stroke-width="11"/>
<rect x="80" y="51.2939" width="40" height="5" rx="2.5" fill="black"/>
<mask id="path-8-inside-1_351_32" fill="white">
<rect x="142.082" y="10" width="40" height="145" rx="3"/>
</mask>
<rect x="142.082" y="10" width="40" height="145" rx="3" stroke="black" stroke-width="22" mask="url(#path-8-inside-1_351_32)"/>
<rect x="152.93" y="42.9292" width="18" height="79" fill="black"/>
<rect x="157.627" y="52.4458" width="9" height="60" rx="4.5" fill="white"/>
<rect x="147.045" y="26.2505" width="30" height="9" fill="black"/>
<rect x="147.502" y="128.865" width="30" height="9" fill="black"/>
</svg>
