<svg width="250" height="152" viewBox="0 0 250 152" fill="none" xmlns="http://www.w3.org/2000/svg">
<rect y="121.294" width="250" height="30" rx="15" fill="black"/>
<mask id="path-2-inside-1_351_20" fill="white">
<rect x="60" y="0.293945" width="130" height="90" rx="9"/>
</mask>
<rect x="60" y="0.293945" width="130" height="90" rx="9" stroke="black" stroke-width="22" stroke-linejoin="round" mask="url(#path-2-inside-1_351_20)"/>
<rect x="60" y="60.2939" width="130" height="7" rx="3.5" fill="black"/>
<circle cx="125" cy="73.2939" r="4" fill="black"/>
<path d="M117.5 94.2939H131.5L133.25 101.044V101.044C134.877 105.526 137.069 109.781 139.774 113.707L145 121.294H104L111.116 110.965C112.568 108.857 113.794 106.602 114.775 104.237V104.237C115.656 102.113 116.335 99.9105 116.802 97.6587L117.5 94.2939Z" fill="black"/>
<path d="M109.354 19.6475C109.549 19.4522 109.549 19.1357 109.354 18.9404L106.172 15.7584C105.976 15.5631 105.66 15.5631 105.464 15.7584C105.269 15.9537 105.269 16.2703 105.464 16.4655L108.293 19.2939L105.464 22.1224C105.269 22.3176 105.269 22.6342 105.464 22.8295C105.66 23.0247 105.976 23.0247 106.172 22.8295L109.354 19.6475ZM82 19.7939H109V18.7939H82V19.7939Z" fill="black"/>
<path d="M102 26.2939L97 23.4072V29.1807L102 26.2939ZM82 26.7939H97.5V25.7939H82V26.7939Z" fill="black"/>
<path d="M117 33.7939L122 36.1807V30.4072L117 32.7939V33.7939ZM82 33.7939H117.5V32.7939H82V33.7939Z" fill="black"/>
<path d="M109.333 40.2939C109.333 41.7667 110.527 42.9606 112 42.9606C113.473 42.9606 114.667 41.7667 114.667 40.2939C114.667 38.8212 113.473 37.6273 112 37.6273C110.527 37.6273 109.333 38.8212 109.333 40.2939ZM82 40.7939H112V39.7939H82V40.7939Z" fill="black"/>
<path d="M134.887 48.2939L132 45.4072L129.113 48.2939L132 51.1807L134.887 48.2939ZM82 48.7939H132V47.7939H82V48.7939Z" fill="black"/>
</svg>
