<svg width="247" height="224" viewBox="0 0 247 224" fill="none" xmlns="http://www.w3.org/2000/svg">
<path d="M94 56V15C94 10.0294 98.0294 6 103 6H215C219.971 6 224 10.0294 224 15V97C224 101.971 219.971 106 215 106H159H126.5H99.25" stroke="black" stroke-width="11"/>
<path d="M10 79C10 74.0294 14.0294 70 19 70H70V130H19C14.0294 130 10 125.971 10 121V79Z" fill="black"/>
<path d="M84 97L78.1425 102.449C81.0162 105.538 85.7952 105.864 89.0623 103.195L84 97ZM135.562 65.1946C138.983 62.3988 139.49 57.3589 136.695 53.9377C133.899 50.5165 128.859 50.0096 125.438 52.8054L135.562 65.1946ZM58.1425 80.9488L78.1425 102.449L89.8575 91.5512L69.8575 70.0512L58.1425 80.9488ZM89.0623 103.195L135.562 65.1946L125.438 52.8054L78.9377 90.8054L89.0623 103.195Z" fill="black"/>
<circle cx="40" cy="38" r="25" fill="black"/>
<circle cx="38" cy="168" r="25" fill="black"/>
<path d="M0 224C0 210.193 11.1929 199 25 199H50C63.8071 199 75 210.193 75 224V224H0V224Z" fill="black"/>
<circle cx="210" cy="168" r="25" fill="black"/>
<path d="M172 224C172 210.193 183.193 199 197 199H222C235.807 199 247 210.193 247 224V224H172V224Z" fill="black"/>
<circle cx="124" cy="168" r="25" fill="black"/>
<path d="M86 224C86 210.193 97.1929 199 111 199H136C149.807 199 161 210.193 161 224V224H86V224Z" fill="black"/>
<rect x="135.689" y="17" width="6.6" height="30" rx="3.3" fill="black"/>
<rect x="124" y="35.3027" width="6.6" height="30" rx="3.3" transform="rotate(-90 124 35.3027)" fill="black"/>
<rect x="172.273" y="61.9409" width="6.6" height="30" rx="3.3" transform="rotate(-45 172.273 61.9409)" fill="black"/>
<rect x="176.939" y="83.1538" width="6.6" height="30" rx="3.3" transform="rotate(-135 176.939 83.1538)" fill="black"/>
<rect x="170" y="34.6001" width="6.6" height="30" rx="3.3" transform="rotate(-90 170 34.6001)" fill="black"/>
</svg>
